<svg version="1.1" id="Layer_1" xmlns="http://www.w3.org/2000/svg" xmlns:xlink="http://www.w3.org/1999/xlink" x="0px" y="0px"
	 width="100%" viewBox="0 0 500 500" enable-background="new 0 0 500 500" xml:space="preserve">
<path fill="#FFFFFF" opacity="1.000000" stroke="none" 
	d="
M335.000000,501.000000 
	C223.333359,501.000000 112.166718,501.000000 1.000060,501.000000 
	C1.000040,334.333405 1.000040,167.666794 1.000020,1.000149 
	C167.666565,1.000099 334.333130,1.000099 500.999756,1.000050 
	C500.999847,167.666519 500.999847,334.333038 500.999939,500.999786 
	C445.833344,501.000000 390.666656,501.000000 335.000000,501.000000 
M229.991333,319.966614 
	C243.919281,319.966614 257.847229,319.966614 272.678650,319.966614 
	C271.628357,319.265106 271.491333,319.093536 271.353790,319.093109 
	C257.568665,319.052521 243.783524,319.024811 229.559067,318.471069 
	C228.524185,318.471069 227.489304,318.471069 226.454437,318.471069 
	C226.456985,318.818298 226.459534,319.165497 226.462082,319.512726 
	C227.328659,319.667877 228.195221,319.823029 229.991333,319.966614 
M364.836578,239.048798 
	C364.666656,239.031494 364.496704,239.014191 364.159454,238.074524 
	C364.159454,231.240540 364.159454,224.406555 364.159454,216.851700 
	C360.191986,217.295822 357.040314,217.648636 353.114227,218.203949 
	C352.747864,218.886902 352.064941,219.568390 352.061798,220.253036 
	C351.995911,234.502502 351.970398,248.752640 352.081390,263.001495 
	C352.089203,264.005188 353.216339,265.000153 354.322571,266.715698 
	C357.425690,266.715698 360.528778,266.715698 364.119171,266.715698 
	C364.119171,261.576843 364.087433,256.626526 364.129089,251.676804 
	C364.163239,247.623886 365.938080,244.767822 370.254089,244.750961 
	C374.750275,244.733414 375.456421,248.113464 375.475403,251.714478 
	C375.501587,256.672455 375.481934,261.630646 375.481934,266.614319 
	C379.226868,266.614319 382.432251,266.614319 385.875488,266.614319 
	C385.875488,259.916260 385.976868,253.607224 385.841736,247.303253 
	C385.742859,242.690338 383.328827,239.572311 379.067627,237.745377 
	C374.194824,235.656250 369.683746,236.352142 364.836578,239.048798 
M277.330139,130.147552 
	C245.503067,129.539505 213.703918,129.310272 182.188965,135.005341 
	C152.248169,140.415939 123.057938,148.168762 96.156319,162.841049 
	C81.292252,170.947968 67.705536,180.684036 57.583965,194.702209 
	C45.146404,211.927963 44.085762,232.901459 55.163639,250.962448 
	C62.287537,262.577026 72.276047,271.371735 83.430527,278.817108 
	C111.370308,297.466278 142.858734,306.738068 175.438675,312.970093 
	C180.042770,313.850769 184.685883,314.527405 189.310944,315.298492 
	C189.393448,314.905304 189.475952,314.512085 189.558472,314.118866 
	C188.041473,313.695648 186.517395,313.296204 185.008621,312.845520 
	C171.960159,308.948120 158.679443,305.679138 145.926437,300.978851 
	C129.365723,294.875183 114.366043,285.880829 102.752174,272.176147 
	C94.486900,262.422882 90.509315,251.260696 92.984474,238.378632 
	C94.708290,229.406967 99.541779,222.051193 105.780037,215.621490 
	C120.084854,200.877655 138.013443,192.153152 157.177109,185.948837 
	C212.787369,167.944733 269.146301,167.255661 325.753113,180.324966 
	C348.747711,185.633926 370.727264,193.994171 389.323059,209.220230 
	C399.156860,217.272095 407.252197,226.714432 409.144409,239.953949 
	C411.384888,255.630203 404.847595,267.952637 393.646637,278.075592 
	C371.818146,297.803406 345.231598,307.125122 316.898621,312.460571 
	C316.303192,312.572693 315.797638,313.162170 314.384827,314.108734 
	C316.311188,314.309937 317.225037,314.601135 318.070129,314.465149 
	C341.964844,310.620789 365.328400,304.727234 387.662842,295.315765 
	C407.144714,287.106445 425.208008,276.627136 439.639862,260.715424 
	C458.646515,239.759918 459.283661,212.040878 441.462494,190.829407 
	C428.128510,174.958771 411.050903,164.493179 392.547272,156.243591 
	C356.224548,140.049622 317.697815,133.062698 277.330139,130.147552 
M136.811203,233.661484 
	C135.007080,230.862396 133.201447,228.064301 131.399155,225.264038 
	C126.991333,218.415497 125.595322,217.889252 117.124268,219.925079 
	C117.124268,235.485779 117.124268,251.058334 117.124268,266.755188 
	C120.700134,266.755188 123.949814,266.755188 127.829483,266.755188 
	C127.829483,257.517181 127.829483,248.527283 127.829483,239.537384 
	C133.289658,246.276962 138.351379,252.932739 142.035812,260.279266 
	C145.539413,267.265167 150.563553,268.073242 157.213989,266.538177 
	C157.213989,250.870468 157.213989,235.174545 157.213989,219.504242 
	C153.523117,219.504242 150.265427,219.504242 146.275055,219.504242 
	C146.275055,228.739243 146.275055,237.690887 146.275055,246.642548 
	C145.941711,246.682205 145.608368,246.721863 145.275024,246.761536 
	C142.569366,242.606781 139.863693,238.452026 136.811203,233.661484 
M202.457077,252.087708 
	C204.095123,255.167786 205.677383,258.279266 207.387253,261.318939 
	C209.016159,264.214752 209.865540,267.595490 214.724213,267.177765 
	C219.117172,266.800018 218.681854,263.319519 220.035675,261.002747 
	C221.554718,258.403259 222.712860,255.592850 224.366379,252.174744 
	C226.199829,256.266510 227.593750,259.455658 229.055817,262.613251 
	C230.057526,264.776550 230.474945,267.115051 233.998703,267.169952 
	C237.545868,267.225250 238.927963,265.566895 240.295349,262.839111 
	C243.048691,257.346466 246.092117,251.999847 248.967972,246.567642 
	C250.474152,243.722595 251.878891,240.823853 253.699127,237.216751 
	C251.241852,237.216751 249.758148,237.396164 248.332855,237.183685 
	C243.738968,236.498810 240.904617,238.032440 239.525604,242.750488 
	C238.577026,245.995834 236.715363,248.974289 234.832123,252.987732 
	C232.602539,248.062302 231.008270,243.930222 228.856003,240.112732 
	C228.090271,238.754547 225.937271,237.365402 224.475922,237.424896 
	C222.771973,237.494232 220.433548,238.729904 219.598511,240.171051 
	C217.324875,244.094986 215.698547,248.393997 213.555023,253.119034 
	C211.395584,248.331055 209.688782,244.179916 207.634583,240.208481 
	C206.991623,238.965424 205.509918,237.547516 204.241959,237.359909 
	C201.371140,236.935120 198.394409,237.226227 194.544571,237.226227 
	C197.324127,242.470245 199.704224,246.960632 202.457077,252.087708 
M264.406281,255.473434 
	C264.406281,259.228455 264.406281,262.983459 264.406281,266.781525 
	C268.434418,266.781525 271.710876,266.781525 275.567444,266.781525 
	C275.567444,254.175690 275.567444,241.786453 275.567444,228.885620 
	C279.552063,228.885620 282.962128,228.885620 286.518066,228.885620 
	C286.518066,225.461426 286.518066,222.573349 286.518066,219.540741 
	C275.304108,219.540741 264.420044,219.540741 253.446289,219.540741 
	C253.446289,222.775665 253.446289,225.670502 253.446289,229.078873 
	C257.191162,229.078873 260.604095,229.078873 263.837189,229.078873 
	C264.111938,229.906235 264.301239,230.212616 264.303009,230.520081 
	C264.349457,238.507538 264.376434,246.495102 264.406281,255.473434 
M317.538635,290.115875 
	C270.021545,307.104584 222.982773,305.063568 175.963150,286.893250 
	C176.285278,285.735474 176.712051,284.965057 176.655197,284.232147 
	C176.563126,283.045532 176.153442,281.883606 175.877853,280.711243 
	C174.820816,281.471375 173.451508,282.025055 172.780411,283.040283 
	C171.789139,284.539856 171.065384,286.312897 170.645767,288.069366 
	C170.112946,290.299622 169.998367,292.629822 169.703461,294.916931 
	C171.451340,293.775177 173.199219,292.633423 175.322723,291.246307 
	C208.271805,304.388611 242.800674,309.182251 278.583191,303.974335 
	C295.959625,301.445343 312.707275,296.678741 328.962952,290.134796 
	C329.851654,289.777039 330.287109,288.293427 330.933533,287.333862 
	C329.836548,287.021027 328.592957,286.212250 327.669189,286.485352 
	C324.487183,287.425964 321.416840,288.744446 317.538635,290.115875 
M288.512909,252.409103 
	C289.654907,260.866302 294.371429,266.273682 301.849762,267.699341 
	C309.283417,269.116486 316.431580,266.083191 319.598846,260.142700 
	C316.332642,257.639954 313.414124,256.180695 309.027100,258.871735 
	C304.925140,261.387970 300.873962,258.886902 299.800140,253.734680 
	C306.779510,253.734680 313.652313,253.734680 320.437561,253.734680 
	C321.154541,244.871109 317.048157,238.805740 309.621704,237.000961 
	C299.036133,234.428452 290.221283,240.536865 288.512909,252.409103 
M174.219406,257.349976 
	C173.849854,256.333191 173.480301,255.316391 172.864517,253.622101 
	C180.371857,253.622101 187.283783,253.622101 194.129852,253.622101 
	C194.945404,244.381699 190.646759,238.469559 182.390060,236.861725 
	C173.656326,235.160980 165.456558,239.758133 162.951508,247.759888 
	C160.606155,255.251556 164.549591,263.426025 172.053848,266.628418 
	C179.839859,269.951050 189.504211,267.049225 193.369003,260.073914 
	C190.182251,258.208405 187.594040,255.652328 183.179077,258.625214 
	C181.370163,259.843262 177.669113,258.251373 174.219406,257.349976 
M342.293396,245.012466 
	C343.696198,245.244156 345.099030,245.475861 346.573578,245.719391 
	C347.632721,243.371536 348.550964,241.336029 349.435791,239.374557 
	C341.074799,234.492508 332.141052,236.057037 326.571228,242.975632 
	C321.820923,248.876328 322.208893,257.011230 327.505402,262.561707 
	C333.381744,268.719818 342.627045,269.729034 349.373383,264.681732 
	C348.433533,262.707184 347.459869,260.661621 346.532227,258.712677 
	C338.593140,259.770142 335.168884,258.180969 334.395355,253.289246 
	C333.702148,248.905609 336.162201,246.028534 342.293396,245.012466 
M200.180023,316.459320 
	C200.612122,316.411560 201.044235,316.363770 201.476334,316.316010 
	C201.298065,315.944183 201.119797,315.572357 200.941544,315.200531 
	C200.558212,315.488556 200.174881,315.776550 200.180023,316.459320 
M204.520981,317.922607 
	C204.765564,317.777008 205.010147,317.631409 205.254730,317.485779 
	C205.002548,317.350891 204.685867,317.054077 204.514603,317.122284 
	C204.303040,317.206543 204.212341,317.594208 204.520981,317.922607 
M288.896240,318.705139 
	C289.167786,318.450684 289.444397,318.200958 289.697418,317.929260 
	C289.711731,317.913879 289.532410,317.718170 289.443207,317.606354 
	C289.158966,317.872620 288.874725,318.138855 288.896240,318.705139 
M197.185349,316.260529 
	C197.026978,316.375549 196.868607,316.490570 196.710251,316.605652 
	C196.930649,316.582306 197.151031,316.558960 197.185349,316.260529 
M212.482620,318.588959 
	C212.482620,318.588959 212.415405,318.476868 212.482620,318.588959 
z"/>
<path fill="#FF8051" opacity="1.000000" stroke="none" 
	d="
M277.807190,130.165100 
	C317.697815,133.062698 356.224548,140.049622 392.547272,156.243591 
	C411.050903,164.493179 428.128510,174.958771 441.462494,190.829407 
	C459.283661,212.040878 458.646515,239.759918 439.639862,260.715424 
	C425.208008,276.627136 407.144714,287.106445 387.662842,295.315765 
	C365.328400,304.727234 341.964844,310.620789 318.070129,314.465149 
	C317.225037,314.601135 316.311188,314.309937 314.384827,314.108734 
	C315.797638,313.162170 316.303192,312.572693 316.898621,312.460571 
	C345.231598,307.125122 371.818146,297.803406 393.646637,278.075592 
	C404.847595,267.952637 411.384888,255.630203 409.144409,239.953949 
	C407.252197,226.714432 399.156860,217.272095 389.323059,209.220230 
	C370.727264,193.994171 348.747711,185.633926 325.753113,180.324966 
	C269.146301,167.255661 212.787369,167.944733 157.177109,185.948837 
	C138.013443,192.153152 120.084854,200.877655 105.780037,215.621490 
	C99.541779,222.051193 94.708290,229.406967 92.984474,238.378632 
	C90.509315,251.260696 94.486900,262.422882 102.752174,272.176147 
	C114.366043,285.880829 129.365723,294.875183 145.926437,300.978851 
	C158.679443,305.679138 171.960159,308.948120 185.008621,312.845520 
	C186.517395,313.296204 188.041473,313.695648 189.558472,314.118866 
	C189.475952,314.512085 189.393448,314.905304 189.310944,315.298492 
	C184.685883,314.527405 180.042770,313.850769 175.438675,312.970093 
	C142.858734,306.738068 111.370308,297.466278 83.430527,278.817108 
	C72.276047,271.371735 62.287537,262.577026 55.163639,250.962448 
	C44.085762,232.901459 45.146404,211.927963 57.583965,194.702209 
	C67.705536,180.684036 81.292252,170.947968 96.156319,162.841049 
	C123.057938,148.168762 152.248169,140.415939 182.188965,135.005341 
	C213.703918,129.310272 245.503067,129.539505 277.807190,130.165100 
z"/>
<path fill="#29A2D7" opacity="1.000000" stroke="none" 
	d="
M136.984619,233.979370 
	C139.863693,238.452026 142.569366,242.606781 145.275024,246.761536 
	C145.608368,246.721863 145.941711,246.682205 146.275055,246.642548 
	C146.275055,237.690887 146.275055,228.739243 146.275055,219.504242 
	C150.265427,219.504242 153.523117,219.504242 157.213989,219.504242 
	C157.213989,235.174545 157.213989,250.870468 157.213989,266.538177 
	C150.563553,268.073242 145.539413,267.265167 142.035812,260.279266 
	C138.351379,252.932739 133.289658,246.276962 127.829483,239.537384 
	C127.829483,248.527283 127.829483,257.517181 127.829483,266.755188 
	C123.949814,266.755188 120.700134,266.755188 117.124268,266.755188 
	C117.124268,251.058334 117.124268,235.485779 117.124268,219.925079 
	C125.595322,217.889252 126.991333,218.415497 131.399155,225.264038 
	C133.201447,228.064301 135.007080,230.862396 136.984619,233.979370 
z"/>
<path fill="#28A1D6" opacity="1.000000" stroke="none" 
	d="
M202.270691,251.769363 
	C199.704224,246.960632 197.324127,242.470245 194.544571,237.226227 
	C198.394409,237.226227 201.371140,236.935120 204.241959,237.359909 
	C205.509918,237.547516 206.991623,238.965424 207.634583,240.208481 
	C209.688782,244.179916 211.395584,248.331055 213.555023,253.119034 
	C215.698547,248.393997 217.324875,244.094986 219.598511,240.171051 
	C220.433548,238.729904 222.771973,237.494232 224.475922,237.424896 
	C225.937271,237.365402 228.090271,238.754547 228.856003,240.112732 
	C231.008270,243.930222 232.602539,248.062302 234.832123,252.987732 
	C236.715363,248.974289 238.577026,245.995834 239.525604,242.750488 
	C240.904617,238.032440 243.738968,236.498810 248.332855,237.183685 
	C249.758148,237.396164 251.241852,237.216751 253.699127,237.216751 
	C251.878891,240.823853 250.474152,243.722595 248.967972,246.567642 
	C246.092117,251.999847 243.048691,257.346466 240.295349,262.839111 
	C238.927963,265.566895 237.545868,267.225250 233.998703,267.169952 
	C230.474945,267.115051 230.057526,264.776550 229.055817,262.613251 
	C227.593750,259.455658 226.199829,256.266510 224.366379,252.174744 
	C222.712860,255.592850 221.554718,258.403259 220.035675,261.002747 
	C218.681854,263.319519 219.117172,266.800018 214.724213,267.177765 
	C209.865540,267.595490 209.016159,264.214752 207.387253,261.318939 
	C205.677383,258.279266 204.095123,255.167786 202.270691,251.769363 
z"/>
<path fill="#25A0D6" opacity="1.000000" stroke="none" 
	d="
M353.888641,218.001450 
	C357.040314,217.648636 360.191986,217.295822 364.159454,216.851700 
	C364.159454,224.406555 364.159454,231.240540 364.213806,238.770508 
	C364.626312,239.354202 364.984467,239.241913 365.342651,239.129623 
	C369.683746,236.352142 374.194824,235.656250 379.067627,237.745377 
	C383.328827,239.572311 385.742859,242.690338 385.841736,247.303253 
	C385.976868,253.607224 385.875488,259.916260 385.875488,266.614319 
	C382.432251,266.614319 379.226868,266.614319 375.481934,266.614319 
	C375.481934,261.630646 375.501587,256.672455 375.475403,251.714478 
	C375.456421,248.113464 374.750275,244.733414 370.254089,244.750961 
	C365.938080,244.767822 364.163239,247.623886 364.129089,251.676804 
	C364.087433,256.626526 364.119171,261.576843 364.119171,266.715698 
	C360.528778,266.715698 357.425690,266.715698 354.140808,265.893188 
	C353.935577,249.380936 353.912109,233.691193 353.888641,218.001450 
z"/>
<path fill="#27A0D6" opacity="1.000000" stroke="none" 
	d="
M264.406525,254.978043 
	C264.376434,246.495102 264.349457,238.507538 264.303009,230.520081 
	C264.301239,230.212616 264.111938,229.906235 263.837189,229.078873 
	C260.604095,229.078873 257.191162,229.078873 253.446289,229.078873 
	C253.446289,225.670502 253.446289,222.775665 253.446289,219.540741 
	C264.420044,219.540741 275.304108,219.540741 286.518066,219.540741 
	C286.518066,222.573349 286.518066,225.461426 286.518066,228.885620 
	C282.962128,228.885620 279.552063,228.885620 275.567444,228.885620 
	C275.567444,241.786453 275.567444,254.175690 275.567444,266.781525 
	C271.710876,266.781525 268.434418,266.781525 264.406281,266.781525 
	C264.406281,262.983459 264.406281,259.228455 264.406525,254.978043 
z"/>
<path fill="#FFC163" opacity="1.000000" stroke="none" 
	d="
M317.921326,290.017456 
	C321.416840,288.744446 324.487183,287.425964 327.669189,286.485352 
	C328.592957,286.212250 329.836548,287.021027 330.933533,287.333862 
	C330.287109,288.293427 329.851654,289.777039 328.962952,290.134796 
	C312.707275,296.678741 295.959625,301.445343 278.583191,303.974335 
	C242.800674,309.182251 208.271805,304.388611 175.322723,291.246307 
	C173.199219,292.633423 171.451340,293.775177 169.703461,294.916931 
	C169.998367,292.629822 170.112946,290.299622 170.645767,288.069366 
	C171.065384,286.312897 171.789139,284.539856 172.780411,283.040283 
	C173.451508,282.025055 174.820816,281.471375 175.877853,280.711243 
	C176.153442,281.883606 176.563126,283.045532 176.655197,284.232147 
	C176.712051,284.965057 176.285278,285.735474 175.963150,286.893250 
	C222.982773,305.063568 270.021545,307.104584 317.921326,290.017456 
z"/>
<path fill="#29A1D6" opacity="1.000000" stroke="none" 
	d="
M288.516663,252.016327 
	C290.221283,240.536865 299.036133,234.428452 309.621704,237.000961 
	C317.048157,238.805740 321.154541,244.871109 320.437561,253.734680 
	C313.652313,253.734680 306.779510,253.734680 299.800140,253.734680 
	C300.873962,258.886902 304.925140,261.387970 309.027100,258.871735 
	C313.414124,256.180695 316.332642,257.639954 319.598846,260.142700 
	C316.431580,266.083191 309.283417,269.116486 301.849762,267.699341 
	C294.371429,266.273682 289.654907,260.866302 288.516663,252.016327 
M308.466217,244.129578 
	C303.057281,242.279480 301.050446,243.153809 300.328247,247.646057 
	C303.552338,247.646057 306.776550,247.646057 310.548340,247.646057 
	C309.906372,246.323624 309.503204,245.493149 308.466217,244.129578 
z"/>
<path fill="#29A2D7" opacity="1.000000" stroke="none" 
	d="
M174.524109,257.643860 
	C177.669113,258.251373 181.370163,259.843262 183.179077,258.625214 
	C187.594040,255.652328 190.182251,258.208405 193.369003,260.073914 
	C189.504211,267.049225 179.839859,269.951050 172.053848,266.628418 
	C164.549591,263.426025 160.606155,255.251556 162.951508,247.759888 
	C165.456558,239.758133 173.656326,235.160980 182.390060,236.861725 
	C190.646759,238.469559 194.945404,244.381699 194.129852,253.622101 
	C187.283783,253.622101 180.371857,253.622101 172.864517,253.622101 
	C173.480301,255.316391 173.849854,256.333191 174.524109,257.643860 
M183.997803,246.888611 
	C182.116943,245.635254 180.322983,243.601486 178.327286,243.379227 
	C176.773453,243.206192 174.968460,245.288498 173.275085,246.368484 
	C173.509125,246.803665 173.743179,247.238846 173.977219,247.674026 
	C177.219467,247.674026 180.461716,247.674026 183.997803,246.888611 
z"/>
<path fill="#28A1D6" opacity="1.000000" stroke="none" 
	d="
M341.896606,244.996414 
	C336.162201,246.028534 333.702148,248.905609 334.395355,253.289246 
	C335.168884,258.180969 338.593140,259.770142 346.532227,258.712677 
	C347.459869,260.661621 348.433533,262.707184 349.373383,264.681732 
	C342.627045,269.729034 333.381744,268.719818 327.505402,262.561707 
	C322.208893,257.011230 321.820923,248.876328 326.571228,242.975632 
	C332.141052,236.057037 341.074799,234.492508 349.435791,239.374557 
	C348.550964,241.336029 347.632721,243.371536 346.573578,245.719391 
	C345.099030,245.475861 343.696198,245.244156 341.896606,244.996414 
z"/>
<path fill="#FEFEFE" opacity="1.000000" stroke="none" 
	d="
M353.501434,218.102692 
	C353.912109,233.691193 353.935577,249.380936 353.891022,265.534912 
	C353.216339,265.000153 352.089203,264.005188 352.081390,263.001495 
	C351.970398,248.752640 351.995911,234.502502 352.061798,220.253036 
	C352.064941,219.568390 352.747864,218.886902 353.501434,218.102692 
z"/>
<path fill="#FFDED1" opacity="1.000000" stroke="none" 
	d="
M229.998383,318.996338 
	C243.783524,319.024811 257.568665,319.052521 271.353790,319.093109 
	C271.491333,319.093536 271.628357,319.265106 272.678650,319.966614 
	C257.847229,319.966614 243.919281,319.966614 229.618805,319.756226 
	C229.437454,319.281250 229.688141,319.098083 229.998383,318.996338 
z"/>
<path fill="#FEFEFE" opacity="1.000000" stroke="none" 
	d="
M229.778717,318.733704 
	C229.688141,319.098083 229.437454,319.281250 229.154037,319.762024 
	C228.195221,319.823029 227.328659,319.667877 226.462082,319.512726 
	C226.459534,319.165497 226.456985,318.818298 226.454437,318.471069 
	C227.489304,318.471069 228.524185,318.471069 229.778717,318.733704 
z"/>
<path fill="#FEFEFE" opacity="1.000000" stroke="none" 
	d="
M199.985779,316.261963 
	C200.174881,315.776550 200.558212,315.488556 200.941544,315.200531 
	C201.119797,315.572357 201.298065,315.944183 201.476334,316.316010 
	C201.044235,316.363770 200.612122,316.411560 199.985779,316.261963 
z"/>
<path fill="#FEFEFE" opacity="1.000000" stroke="none" 
	d="
M204.295197,317.886688 
	C204.212341,317.594208 204.303040,317.206543 204.514603,317.122284 
	C204.685867,317.054077 205.002548,317.350891 205.254730,317.485779 
	C205.010147,317.631409 204.765564,317.777008 204.295197,317.886688 
z"/>
<path fill="#FEFEFE" opacity="1.000000" stroke="none" 
	d="
M288.743347,318.555115 
	C288.874725,318.138855 289.158966,317.872620 289.443207,317.606354 
	C289.532410,317.718170 289.711731,317.913879 289.697418,317.929260 
	C289.444397,318.200958 289.167786,318.450684 288.743347,318.555115 
z"/>
<path fill="#FEFEFE" opacity="1.000000" stroke="none" 
	d="
M197.278381,316.398071 
	C197.151031,316.558960 196.930649,316.582306 196.710236,316.605652 
	C196.868607,316.490570 197.026978,316.375549 197.278381,316.398071 
z"/>
<path fill="#FEFEFE" opacity="1.000000" stroke="none" 
	d="
M365.089600,239.089203 
	C364.984467,239.241913 364.626312,239.354202 364.297424,239.231689 
	C364.496704,239.014191 364.666656,239.031494 365.089600,239.089203 
z"/>
<path fill="#FEFEFE" opacity="1.000000" stroke="none" 
	d="
M212.449005,318.532898 
	C212.415405,318.476868 212.482620,318.588959 212.449005,318.532898 
z"/>
<path fill="#F1F9FC" opacity="1.000000" stroke="none" 
	d="
M308.783142,244.396118 
	C309.503204,245.493149 309.906372,246.323624 310.548340,247.646057 
	C306.776550,247.646057 303.552338,247.646057 300.328247,247.646057 
	C301.050446,243.153809 303.057281,242.279480 308.783142,244.396118 
z"/>
<path fill="#F1F9FC" opacity="1.000000" stroke="none" 
	d="
M183.850891,247.281311 
	C180.461716,247.674026 177.219467,247.674026 173.977219,247.674026 
	C173.743179,247.238846 173.509125,246.803665 173.275085,246.368484 
	C174.968460,245.288498 176.773453,243.206192 178.327286,243.379227 
	C180.322983,243.601486 182.116943,245.635254 183.850891,247.281311 
z"/>
</svg>